<?xml version="1.0" standalone="no"?>
<!DOCTYPE svg PUBLIC "-//W3C//DTD SVG 20010904//EN"
 "http://www.w3.org/TR/2001/REC-SVG-20010904/DTD/svg10.dtd">
<svg version="1.0" xmlns="http://www.w3.org/2000/svg"
 width="300.000000pt" height="309.000000pt" viewBox="0 0 300.000000 309.000000"
 preserveAspectRatio="xMidYMid meet">
<metadata>
Created by potrace 1.10, written by Peter Selinger 2001-2011
</metadata>
<g transform="translate(0.000000,309.000000) scale(0.100000,-0.100000)"
stroke="none" fill="#562c2c">
<path d="M1417 2730 c-39 -12 -78 -43 -251 -200 -82 -74 -170 -153 -195 -174
-99 -85 -194 -183 -207 -213 -11 -26 -14 -116 -14 -456 l0 -423 25 -50 c14
-28 40 -59 62 -74 l37 -25 608 -3 c688 -3 647 -7 715 76 l38 46 0 446 c0 406
-2 448 -18 477 -9 18 -62 72 -116 120 -55 49 -179 160 -278 248 -98 88 -195
171 -216 184 -42 26 -141 37 -190 21z m159 -71 c59 -36 159 -120 267 -226 72
-70 112 -103 122 -99 10 4 30 -10 55 -37 87 -93 150 -167 150 -176 0 -9 -98
-20 -106 -12 -2 2 -4 25 -4 51 0 52 -25 99 -73 134 -28 21 -37 21 -480 21
-519 0 -522 0 -562 -69 -18 -31 -25 -57 -25 -94 l0 -52 -47 6 c-27 4 -52 10
-57 14 -4 5 19 36 53 71 34 34 61 66 61 71 0 13 56 69 63 62 14 -14 51 15 180
140 228 222 300 256 403 195z m384 -414 c42 -22 50 -43 50 -138 l0 -85 -171
-164 c-94 -89 -175 -165 -180 -167 -6 -1 -19 5 -30 15 -19 17 -19 18 19 58
106 111 121 194 49 273 -45 50 -134 54 -180 7 l-25 -25 -25 25 c-37 37 -90 43
-143 18 -52 -26 -76 -68 -76 -133 0 -54 15 -84 80 -153 23 -24 42 -49 42 -53
0 -5 -10 -14 -21 -21 -20 -13 -28 -7 -118 80 -53 52 -133 127 -178 168 l-81
75 -7 93 c-6 82 -5 92 9 86 11 -4 16 -1 16 10 0 41 43 45 503 46 372 0 442 -2
467 -15z m129 -173 c6 -3 -31 -31 -41 -32 -5 0 -8 14 -8 30 0 31 2 31 49 2z
m-1210 -39 c39 -29 129 -113 310 -287 l114 -109 -35 -31 c-20 -17 -126 -111
-237 -210 -111 -98 -205 -175 -208 -172 -13 12 -20 191 -22 509 l-2 327 22 0
c12 0 38 -12 58 -27z m1307 -370 c-3 -219 -8 -408 -12 -420 -9 -31 -25 -29
-60 8 -16 17 -110 104 -209 192 -99 88 -188 168 -198 177 -17 16 -9 25 161
194 190 188 260 246 300 246 l24 0 -6 -397z m-736 356 l40 -21 43 21 c77 37
135 22 163 -44 21 -52 6 -103 -48 -160 -16 -16 -36 -42 -44 -57 -17 -33 -15
-33 -56 -8 -42 25 -64 25 -108 -1 l-34 -21 -26 33 c-14 19 -35 44 -47 57 -61
62 -68 140 -17 193 34 35 76 38 134 8z m163 -375 c51 -53 158 -155 239 -225
210 -184 264 -236 255 -246 -13 -12 -1208 -15 -1227 -3 -17 11 -35 -7 211 212
85 75 206 186 269 247 79 77 122 111 138 111 16 0 50 -29 115 -96z"/>
<path d="M2081 2616 c-5 -13 -17 -26 -27 -30 -16 -6 -15 -8 4 -27 12 -11 22
-24 22 -29 0 -18 29 -10 35 9 3 10 16 22 28 25 l22 6 -20 18 c-12 9 -24 25
-28 35 -9 24 -26 21 -36 -7z"/>
<path d="M860 2577 c0 -33 23 -52 39 -33 18 22 9 51 -17 54 -18 3 -22 -1 -22
-21z"/>
<path d="M680 2405 c-24 -29 21 -60 48 -33 9 9 8 16 -5 30 -20 22 -27 22 -43
3z"/>
<path d="M2260 2386 c-10 -13 -9 -17 4 -22 22 -8 49 3 44 19 -7 18 -33 20 -48
3z"/>
<path d="M404 1998 c-46 -36 -63 -60 -70 -100 -6 -35 -9 -38 -39 -38 -40 0
-63 -23 -45 -45 10 -12 45 -15 195 -15 150 0 185 3 195 15 16 19 -3 45 -31 45
-14 0 -19 7 -19 25 0 39 -26 82 -67 110 -46 31 -82 32 -119 3z m85 -43 c30
-15 66 -78 56 -95 -3 -6 -41 -10 -84 -10 -71 0 -79 2 -84 21 -9 35 37 95 76
98 4 1 21 -6 36 -14z"/>
<path d="M2448 1998 c-35 -20 -68 -75 -68 -113 0 -9 -11 -20 -25 -25 -14 -5
-25 -15 -25 -23 0 -33 23 -37 201 -37 146 0 180 3 193 15 24 25 9 45 -34 45
-40 0 -50 11 -50 54 0 48 -70 106 -127 106 -15 0 -45 -10 -65 -22z m92 -33
c32 -17 60 -61 60 -96 0 -19 -4 -21 -31 -15 -17 3 -55 6 -84 6 -39 0 -54 4
-59 16 -9 23 20 83 46 94 32 12 35 12 68 -5z"/>
<path d="M502 1528 c-17 -17 -15 -48 4 -55 24 -9 46 24 33 48 -11 22 -20 24
-37 7z"/>
<path d="M2442 1528 c-23 -23 -7 -68 25 -68 7 0 18 11 25 25 18 40 -20 73 -50
43z"/>
<path d="M2000 770 c0 -72 36 -130 88 -143 12 -3 52 1 88 9 98 20 104 11 44
-65 -23 -28 -63 -66 -90 -84 -49 -32 -60 -50 -39 -62 30 -19 119 44 181 129
55 77 29 155 -49 142 -151 -24 -156 -23 -173 60 -9 43 -15 54 -31 54 -16 0
-19 -7 -19 -40z"/>
<path d="M1058 718 c-49 -13 -85 -56 -104 -127 -20 -72 -71 -142 -119 -165
-23 -11 -61 -18 -96 -18 -62 0 -79 -9 -59 -33 14 -17 71 -19 138 -6 73 14 142
97 183 218 23 71 55 97 112 91 46 -4 57 -52 33 -145 -32 -121 -32 -115 -5
-111 31 4 58 87 58 181 1 63 -1 71 -28 98 -31 31 -51 34 -113 17z"/>
<path d="M2426 714 c-52 -19 -79 -43 -66 -59 8 -10 23 -7 68 11 67 28 90 29
120 8 39 -27 25 -90 -45 -196 -25 -37 -24 -58 1 -58 18 0 83 96 96 140 13 47
12 111 -3 131 -31 40 -99 50 -171 23z"/>
<path d="M442 699 c-58 -29 -76 -66 -69 -142 3 -32 2 -71 -3 -87 -6 -21 -4
-32 7 -42 28 -23 43 16 43 114 0 81 2 89 24 103 29 20 87 30 120 21 47 -12 56
-105 21 -207 -8 -22 -10 -42 -4 -50 13 -22 42 2 56 47 15 52 16 176 1 209 -25
56 -119 72 -196 34z"/>
<path d="M717 608 c-4 -57 -10 -120 -13 -140 -6 -34 -4 -38 15 -38 32 0 43 40
44 165 2 105 1 110 -19 113 -20 3 -21 -3 -27 -100z"/>
<path d="M1365 683 c-55 -14 -87 -92 -50 -123 21 -17 35 -4 35 35 0 37 12 45
69 45 41 0 119 -36 135 -61 16 -28 -19 -68 -92 -102 -56 -26 -79 -31 -144 -32
-83 -1 -98 -6 -79 -29 49 -58 287 5 346 92 14 20 25 46 25 58 0 30 -35 71 -79
93 -38 20 -132 33 -166 24z"/>
<path d="M1783 675 c-29 -12 -32 -18 -39 -74 -8 -76 -8 -76 19 -76 19 0 22 6
25 50 2 27 9 53 15 57 19 12 102 9 115 -4 31 -31 4 -134 -84 -317 -53 -111
-60 -141 -31 -141 15 0 149 270 166 335 20 75 14 123 -18 156 -25 25 -37 29
-83 29 -29 -1 -67 -7 -85 -15z"/>
<path d="M2416 567 c-44 -67 -125 -332 -108 -349 22 -22 40 2 57 74 19 76 52
178 79 240 13 31 13 38 1 48 -11 9 -17 6 -29 -13z"/>
</g>
</svg>
