<?xml version="1.0" standalone="no"?>
<!DOCTYPE svg PUBLIC "-//W3C//DTD SVG 20010904//EN"
 "http://www.w3.org/TR/2001/REC-SVG-20010904/DTD/svg10.dtd">
<svg version="1.0" xmlns="http://www.w3.org/2000/svg"
 width="300.000000pt" height="300.000000pt" viewBox="0 0 300.000000 300.000000"
 preserveAspectRatio="xMidYMid meet">
<metadata>
Created by potrace 1.10, written by Peter Selinger 2001-2011
</metadata>
<g transform="translate(0.000000,300.000000) scale(0.100000,-0.100000)"
fill="#000000" stroke="none">
<path d="M1425 2321 c-31 -19 -334 -290 -370 -330 -19 -22 -20 -39 -23 -300
-2 -248 -1 -280 15 -311 35 -68 44 -70 449 -70 230 0 373 4 392 11 17 6 42 26
56 44 l26 34 0 283 0 283 -87 84 c-97 92 -274 247 -313 274 -33 23 -107 22
-145 -2z m118 -27 c35 -18 108 -78 196 -161 31 -29 61 -53 67 -53 11 0 124
-122 124 -134 0 -3 -16 -6 -35 -6 -33 0 -35 2 -35 35 0 24 -9 44 -29 67 l-29
33 -244 2 c-317 3 -364 -1 -394 -34 -17 -18 -24 -38 -24 -64 0 -36 -2 -39 -28
-39 -44 0 -45 10 -2 56 22 24 40 48 40 54 0 6 15 17 34 25 19 8 75 54 126 103
84 82 155 132 188 132 7 0 27 -7 45 -16z m259 -271 c14 -12 18 -31 18 -78 l0
-63 -106 -98 c-59 -55 -111 -99 -117 -99 -22 0 -17 24 11 57 60 68 65 101 26
147 -21 25 -34 31 -64 31 -22 0 -45 -7 -55 -16 -15 -15 -17 -15 -34 0 -10 9
-34 16 -53 16 -28 0 -42 -7 -62 -31 -39 -46 -33 -85 23 -149 17 -19 31 -38 31
-42 0 -28 -36 -5 -135 89 l-115 107 0 53 c0 40 5 58 20 73 19 19 33 20 307 20
252 0 289 -2 305 -17z m-548 -257 l127 -121 -114 -97 c-62 -54 -126 -111 -142
-128 -53 -56 -54 -53 -57 228 -2 141 -2 260 0 265 7 15 63 -29 186 -147z m685
-98 c-1 -134 -5 -253 -10 -266 -9 -22 -14 -19 -112 71 -56 52 -122 113 -147
135 l-45 41 80 82 c107 109 192 179 216 179 19 0 20 -6 18 -242z m-444 208
c17 0 42 4 57 8 20 6 31 3 47 -13 28 -28 26 -51 -9 -100 -28 -38 -33 -41 -64
-35 -19 3 -43 1 -54 -5 -17 -9 -25 -5 -56 32 -41 48 -45 78 -15 108 14 14 26
18 42 12 12 -4 36 -7 52 -7z m67 -212 c36 -39 222 -210 306 -280 12 -10 22
-22 22 -26 0 -5 -175 -8 -390 -8 -214 0 -390 4 -390 9 0 4 57 58 128 119 70
61 154 138 187 171 33 34 67 61 77 61 10 0 37 -21 60 -46z"/>
<path d="M1870 2265 c0 -8 -4 -15 -10 -15 -14 0 -12 -11 5 -33 13 -18 14 -18
34 2 20 20 20 22 4 41 -21 24 -33 26 -33 5z"/>
<path d="M1104 2247 c-6 -17 2 -37 16 -37 15 0 19 29 5 40 -12 10 -16 9 -21
-3z"/>
<path d="M985 2131 c-8 -15 3 -31 21 -31 9 0 14 7 12 17 -4 20 -24 28 -33 14z"/>
<path d="M801 1864 c-18 -15 -31 -35 -31 -49 0 -18 -6 -24 -27 -27 -17 -2 -28
-9 -28 -18 0 -13 20 -15 124 -15 94 0 125 3 129 13 2 7 -5 16 -17 19 -14 3
-21 13 -21 28 0 27 -52 75 -80 75 -10 0 -32 -12 -49 -26z m81 -31 c10 -9 18
-24 18 -35 0 -15 -8 -18 -49 -18 -55 0 -68 15 -45 49 18 25 51 27 76 4z"/>
<path d="M2104 1878 c-22 -10 -44 -47 -44 -73 0 -8 -7 -15 -16 -15 -9 0 -14
-7 -12 -17 3 -16 17 -18 123 -18 106 0 120 2 123 18 3 13 -3 17 -23 17 -20 0
-27 6 -32 30 -11 55 -68 83 -119 58z m75 -44 c34 -43 28 -54 -26 -48 -75 9
-76 9 -58 44 20 38 56 40 84 4z"/>
<path d="M872 1578 c-13 -13 -4 -38 14 -38 15 0 19 35 6 44 -5 3 -14 0 -20 -6z"/>
<path d="M2093 1574 c-3 -8 1 -23 10 -32 15 -14 17 -14 23 1 8 21 -1 47 -16
47 -6 0 -13 -7 -17 -16z"/>
<path d="M1820 1097 c0 -69 55 -104 124 -77 17 6 27 6 32 -1 8 -14 -40 -74
-76 -96 -32 -18 -40 -43 -15 -43 41 0 125 91 125 135 0 38 -23 49 -74 36 -57
-14 -72 -8 -83 36 -11 49 -33 55 -33 10z"/>
<path d="M1235 1072 c-41 -14 -56 -29 -75 -81 -10 -30 -27 -63 -37 -74 -23
-26 -74 -47 -113 -47 -35 0 -40 -15 -7 -24 72 -18 150 36 184 129 22 60 64 88
91 61 16 -16 15 -28 -10 -136 -1 -8 4 -15 12 -15 16 0 38 62 39 111 1 33 -32
85 -52 83 -7 -1 -21 -4 -32 -7z"/>
<path d="M2084 1066 c-18 -8 -34 -19 -38 -24 -12 -19 13 -23 44 -7 38 19 69
16 84 -8 9 -14 5 -30 -21 -77 -22 -40 -28 -62 -21 -66 13 -8 33 16 59 71 24
52 24 76 -1 103 -24 25 -60 28 -106 8z"/>
<path d="M821 1045 c-28 -24 -30 -30 -29 -95 0 -39 4 -70 8 -70 18 0 29 30 32
85 l3 60 37 9 c55 14 72 -4 65 -69 -3 -27 -8 -60 -12 -72 -6 -18 -3 -23 9 -23
39 0 52 144 16 180 -29 29 -90 27 -129 -5z"/>
<path d="M1016 1058 c-3 -7 -7 -48 -9 -90 -4 -60 -2 -78 8 -78 19 0 25 24 25
100 0 62 -14 101 -24 68z"/>
<path d="M1396 1035 c-19 -19 -18 -66 2 -73 7 -2 12 6 12 22 0 15 7 29 15 32
20 8 77 -3 99 -19 49 -36 -38 -97 -137 -97 -61 0 -75 -14 -30 -31 30 -11 105
1 151 25 99 51 72 142 -45 153 -38 4 -53 1 -67 -12z"/>
<path d="M1678 1038 c-9 -7 -19 -32 -22 -56 -6 -38 -4 -43 11 -40 12 2 20 15
23 38 5 32 8 35 41 38 64 5 60 -44 -13 -196 -29 -58 -38 -86 -30 -94 13 -13
53 54 93 155 32 83 35 113 13 145 -12 17 -25 22 -58 22 -23 0 -49 -6 -58 -12z"/>
<path d="M2077 969 c-16 -26 -67 -181 -67 -205 0 -7 6 -14 14 -14 8 0 20 26
31 68 10 37 27 87 37 111 21 50 10 79 -15 40z"/>
</g>
</svg>
